<svg width="260" height="48" viewBox="0 0 260 48" fill="none" xmlns="http://www.w3.org/2000/svg">
<rect width="260" height="48" fill="white"/>
<path d="M78.3551 21.1276C79.7355 21.6045 80.8649 22.3951 81.7433 23.4994C82.6468 24.5786 83.0986 25.9966 83.0986 27.7535C83.0986 30.5393 82.2829 32.5346 80.6515 33.7393C79.0453 34.9189 77.0751 35.5087 74.741 35.5087H65.0658C64.5639 35.5087 64.1372 35.333 63.7858 34.9816C63.4345 34.6302 63.2588 34.2036 63.2588 33.7016V10.9631C63.2588 10.4611 63.4345 10.0344 63.7858 9.68306C64.1372 9.3317 64.5639 9.15601 65.0658 9.15601H74.741C77.0249 9.15601 78.7567 9.72071 79.9363 10.8501C81.1409 11.9795 81.7433 13.6109 81.7433 15.7442C81.7433 16.9489 81.4547 18.0281 80.8774 18.9818C80.3002 19.9104 79.4594 20.6257 78.3551 21.1276ZM77.8657 16.3089C77.8657 15.1293 77.5394 14.2383 76.8869 13.636C76.2594 13.0085 75.3685 12.6948 74.214 12.6948H67.0987V20.0359H74.2893C75.3183 20.0108 76.1716 19.6845 76.8492 19.0571C77.5269 18.4045 77.8657 17.4885 77.8657 16.3089ZM74.7034 32.0452C76.0837 32.0452 77.1881 31.6938 78.0163 30.9911C78.8445 30.2632 79.2586 29.184 79.2586 27.7535C79.2586 24.9676 77.6775 23.5747 74.5151 23.5747H67.0987V32.0452H74.7034Z" fill="#222222"/>
<path d="M106.038 25.6452C106.038 27.6029 105.599 29.3597 104.721 30.9158C103.842 32.4718 102.638 33.6891 101.107 34.5675C99.6007 35.4459 97.9317 35.8851 96.0996 35.8851C94.2675 35.8851 92.5859 35.4459 91.055 34.5675C89.5491 33.6891 88.357 32.4718 87.4785 30.9158C86.6001 29.3597 86.1609 27.6029 86.1609 25.6452C86.1609 23.6876 86.6001 21.9182 87.4785 20.3371C88.357 18.7559 89.5491 17.5261 91.055 16.6477C92.5859 15.7693 94.2675 15.3301 96.0996 15.3301C97.9317 15.3301 99.6007 15.7693 101.107 16.6477C102.638 17.5261 103.842 18.7559 104.721 20.3371C105.599 21.9182 106.038 23.6876 106.038 25.6452ZM102.462 25.6452C102.462 24.29 102.173 23.0853 101.596 22.0312C101.044 20.952 100.278 20.1237 99.2996 19.5465C98.3459 18.9441 97.2792 18.643 96.0996 18.643C94.92 18.643 93.8408 18.9441 92.862 19.5465C91.9083 20.1237 91.1428 20.952 90.5656 22.0312C90.0134 23.0853 89.7373 24.29 89.7373 25.6452C89.7373 26.9754 90.0134 28.1676 90.5656 29.2217C91.1428 30.2758 91.9083 31.104 92.862 31.7064C93.8408 32.2836 94.92 32.5722 96.0996 32.5722C97.2792 32.5722 98.3459 32.2836 99.2996 31.7064C100.278 31.104 101.044 30.2758 101.596 29.2217C102.173 28.1676 102.462 26.9754 102.462 25.6452Z" fill="#222222"/>
<path d="M128.869 25.6452C128.869 27.6029 128.43 29.3597 127.551 30.9158C126.673 32.4718 125.468 33.6891 123.937 34.5675C122.431 35.4459 120.762 35.8851 118.93 35.8851C117.098 35.8851 115.417 35.4459 113.886 34.5675C112.38 33.6891 111.188 32.4718 110.309 30.9158C109.431 29.3597 108.992 27.6029 108.992 25.6452C108.992 23.6876 109.431 21.9182 110.309 20.3371C111.188 18.7559 112.38 17.5261 113.886 16.6477C115.417 15.7693 117.098 15.3301 118.93 15.3301C120.762 15.3301 122.431 15.7693 123.937 16.6477C125.468 17.5261 126.673 18.7559 127.551 20.3371C128.43 21.9182 128.869 23.6876 128.869 25.6452ZM125.293 25.6452C125.293 24.29 125.004 23.0853 124.427 22.0312C123.875 20.952 123.109 20.1237 122.13 19.5465C121.176 18.9441 120.11 18.643 118.93 18.643C117.751 18.643 116.671 18.9441 115.693 19.5465C114.739 20.1237 113.973 20.952 113.396 22.0312C112.844 23.0853 112.568 24.29 112.568 25.6452C112.568 26.9754 112.844 28.1676 113.396 29.2217C113.973 30.2758 114.739 31.104 115.693 31.7064C116.671 32.2836 117.751 32.5722 118.93 32.5722C120.11 32.5722 121.176 32.2836 122.13 31.7064C123.109 31.104 123.875 30.2758 124.427 29.2217C125.004 28.1676 125.293 26.9754 125.293 25.6452Z" fill="#222222"/>
<path d="M149.14 32.384C149.516 32.7856 149.704 33.2248 149.704 33.7016C149.704 34.2036 149.504 34.6302 149.102 34.9816C148.726 35.3079 148.324 35.471 147.897 35.471C147.345 35.471 146.906 35.2702 146.58 34.8687L139.163 27.0005L136.904 29.0334V33.7016C136.904 34.2036 136.729 34.6302 136.377 34.9816C136.051 35.333 135.637 35.5087 135.135 35.5087C134.608 35.5087 134.169 35.333 133.817 34.9816C133.491 34.6302 133.328 34.2036 133.328 33.7016V9.45719C133.328 8.95523 133.491 8.52857 133.817 8.1772C134.169 7.82583 134.608 7.65015 135.135 7.65015C135.637 7.65015 136.051 7.82583 136.377 8.1772C136.729 8.52857 136.904 8.95523 136.904 9.45719V24.7417L146.128 16.2712C146.555 15.8948 146.994 15.7065 147.446 15.7065C147.872 15.7065 148.261 15.8948 148.613 16.2712C148.964 16.6226 149.14 16.9991 149.14 17.4006C149.14 17.9026 148.901 18.3543 148.424 18.7559L141.911 24.5535L149.14 32.384Z" fill="#222222"/>
<path d="M176.949 15.5936C177.426 15.5936 177.827 15.7693 178.153 16.1206C178.505 16.4469 178.68 16.8736 178.68 17.4006C178.68 17.5763 178.63 17.8147 178.53 18.1159L172.77 34.3793C172.619 34.7808 172.368 35.082 172.017 35.2828C171.666 35.4836 171.289 35.5589 170.888 35.5087C170.21 35.4585 169.695 35.082 169.344 34.3793L165.429 24.1394L161.815 34.3793C161.664 34.7306 161.451 35.0067 161.175 35.2075C160.899 35.3832 160.598 35.4836 160.271 35.5087C159.895 35.5589 159.518 35.4836 159.142 35.2828C158.791 35.0569 158.552 34.7557 158.427 34.3793L152.591 18.1159C152.516 17.89 152.478 17.6516 152.478 17.4006C152.478 16.8987 152.642 16.472 152.968 16.1206C153.294 15.7693 153.721 15.5936 154.248 15.5936C155.101 15.5936 155.653 15.9701 155.904 16.723L160.384 29.4099L163.961 20.0359C164.262 19.283 164.814 18.9065 165.617 18.9065C166.37 18.9065 166.885 19.283 167.161 20.0359L170.812 29.2593L175.217 16.723C175.493 15.9701 176.07 15.5936 176.949 15.5936Z" fill="#222222"/>
<path d="M201.221 25.6452C201.221 27.6029 200.782 29.3597 199.903 30.9158C199.025 32.4718 197.82 33.6891 196.289 34.5675C194.784 35.4459 193.115 35.8851 191.282 35.8851C189.45 35.8851 187.769 35.4459 186.238 34.5675C184.732 33.6891 183.54 32.4718 182.661 30.9158C181.783 29.3597 181.344 27.6029 181.344 25.6452C181.344 23.6876 181.783 21.9182 182.661 20.3371C183.54 18.7559 184.732 17.5261 186.238 16.6477C187.769 15.7693 189.45 15.3301 191.282 15.3301C193.115 15.3301 194.784 15.7693 196.289 16.6477C197.82 17.5261 199.025 18.7559 199.903 20.3371C200.782 21.9182 201.221 23.6876 201.221 25.6452ZM197.645 25.6452C197.645 24.29 197.356 23.0853 196.779 22.0312C196.227 20.952 195.461 20.1237 194.482 19.5465C193.529 18.9441 192.462 18.643 191.282 18.643C190.103 18.643 189.024 18.9441 188.045 19.5465C187.091 20.1237 186.326 20.952 185.748 22.0312C185.196 23.0853 184.92 24.29 184.92 25.6452C184.92 26.9754 185.196 28.1676 185.748 29.2217C186.326 30.2758 187.091 31.104 188.045 31.7064C189.024 32.2836 190.103 32.5722 191.282 32.5722C192.462 32.5722 193.529 32.2836 194.482 31.7064C195.461 31.104 196.227 30.2758 196.779 29.2217C197.356 28.1676 197.645 26.9754 197.645 25.6452Z" fill="#222222"/>
<path d="M215.205 15.3301C215.857 15.3301 216.422 15.5057 216.899 15.8571C217.376 16.1834 217.614 16.5975 217.614 17.0995C217.614 17.7018 217.451 18.1661 217.125 18.4924C216.824 18.7936 216.447 18.9441 215.995 18.9441C215.77 18.9441 215.431 18.8688 214.979 18.7183C214.452 18.5426 214.038 18.4547 213.737 18.4547C212.959 18.4547 212.193 18.7308 211.44 19.283C210.712 19.81 210.11 20.5504 209.633 21.5041C209.181 22.4327 208.955 23.4743 208.955 24.6288V33.7016C208.955 34.2036 208.78 34.6302 208.428 34.9816C208.102 35.333 207.675 35.5087 207.148 35.5087C206.621 35.5087 206.195 35.3455 205.868 35.0193C205.542 34.6679 205.379 34.2287 205.379 33.7016V17.5889C205.379 17.0869 205.542 16.6602 205.868 16.3089C206.22 15.9575 206.646 15.7818 207.148 15.7818C207.675 15.7818 208.102 15.9575 208.428 16.3089C208.78 16.6602 208.955 17.0869 208.955 17.5889V19.5088C209.508 18.2791 210.336 17.2877 211.44 16.5348C212.544 15.7567 213.799 15.3552 215.205 15.3301Z" fill="#222222"/>
<path d="M243.556 15.443C247.948 15.443 250.144 18.1787 250.144 23.65V33.7016C250.144 34.2287 249.981 34.6679 249.655 35.0193C249.328 35.3455 248.902 35.5087 248.375 35.5087C247.848 35.5087 247.408 35.333 247.057 34.9816C246.731 34.6302 246.568 34.2036 246.568 33.7016V23.6876C246.568 20.3998 245.187 18.7559 242.427 18.7559C241.448 18.7559 240.557 18.9818 239.754 19.4335C238.976 19.8602 238.361 20.45 237.909 21.2029C237.482 21.9559 237.269 22.7841 237.269 23.6876V33.7016C237.269 34.2036 237.093 34.6302 236.742 34.9816C236.416 35.333 235.989 35.5087 235.462 35.5087C234.935 35.5087 234.508 35.3455 234.182 35.0193C233.856 34.6679 233.693 34.2287 233.693 33.7016V23.65C233.693 22.1692 233.379 20.9896 232.751 20.1112C232.124 19.2077 231.082 18.7559 229.627 18.7559C228.146 18.7559 226.916 19.2328 225.937 20.1865C224.984 21.1151 224.507 22.2696 224.507 23.65V33.7016C224.507 34.2036 224.331 34.6302 223.98 34.9816C223.653 35.333 223.227 35.5087 222.7 35.5087C222.173 35.5087 221.746 35.3455 221.42 35.0193C221.093 34.6679 220.93 34.2287 220.93 33.7016V17.5889C220.93 17.0869 221.093 16.6602 221.42 16.3089C221.771 15.9575 222.198 15.7818 222.7 15.7818C223.227 15.7818 223.653 15.9575 223.98 16.3089C224.331 16.6602 224.507 17.0869 224.507 17.5889V18.9065C225.159 17.9277 226.025 17.112 227.104 16.4595C228.209 15.7818 229.401 15.443 230.681 15.443C233.793 15.443 235.813 16.8234 236.742 19.5841C237.294 18.53 238.21 17.5763 239.49 16.723C240.77 15.8697 242.125 15.443 243.556 15.443Z" fill="#222222"/>
<path d="M24.5664 17.7559L0.785156 29.3882L24.5664 40.9999L48.3684 29.3882L24.5664 17.7559Z" fill="#B8D1CD"/>
<path d="M0.785156 26.7205L7.60342 23.394L24.5664 31.6793L41.5501 23.394L48.3684 26.7205L24.5664 38.3529L0.785156 26.7205Z" fill="#FF3F3E"/>
<path fill-rule="evenodd" clip-rule="evenodd" d="M8.30746 23.0517C8.49739 23.441 8.33577 23.9105 7.94647 24.1005L2.57114 26.723L24.5657 37.4814L46.5801 26.7227L41.2054 24.1005C40.8161 23.9105 40.6544 23.441 40.8444 23.0517C41.0343 22.6624 41.5039 22.5007 41.8932 22.6907L48.7114 26.0172C48.9808 26.1486 49.1517 26.4221 49.1518 26.7218C49.1519 27.0215 48.9812 27.2951 48.7119 27.4267L24.91 39.0591C24.6926 39.1653 24.4383 39.1653 24.221 39.059L0.439688 27.4266C0.170483 27.2949 -0.000152391 27.0213 1.02124e-07 26.7217C0.000152642 26.422 0.171067 26.1486 0.440405 26.0172L7.25867 22.6907C7.64797 22.5007 8.11753 22.6624 8.30746 23.0517Z" fill="#111416"/>
<path d="M41.5501 16.7217L48.3684 20.0688L24.5664 31.6805L0.785156 20.0688L7.60342 16.7217L24.5664 25.0276L41.5501 16.7217Z" fill="#43F7F2"/>
<path d="M7.60059 23.3946L14.4189 20.0681L24.5636 25.0269L34.729 20.0681L41.5473 23.3946L24.5636 31.6798L7.60059 23.3946Z" fill="#F7BF43"/>
<path fill-rule="evenodd" clip-rule="evenodd" d="M8.30661 16.3768C8.4975 16.7657 8.33702 17.2356 7.94819 17.4265L2.56796 20.0677L24.5657 30.8086L46.5832 20.0674L41.2036 17.4265C40.8148 17.2356 40.6543 16.7657 40.8452 16.3768C41.0361 15.988 41.506 15.8275 41.8949 16.0184L48.7131 19.3656C48.982 19.4975 49.1522 19.7711 49.1518 20.0706C49.1515 20.3701 48.9806 20.6432 48.7114 20.7745L24.9095 32.3862C24.6923 32.4921 24.4385 32.4921 24.2215 32.3861L0.440182 20.7744C0.171107 20.643 0.000319082 20.3699 4.46471e-07 20.0705C-0.000318143 19.771 0.169888 19.4975 0.438683 19.3656L7.25695 16.0184C7.64578 15.8275 8.11573 15.988 8.30661 16.3768Z" fill="#111416"/>
<path d="M24.5664 1.78418L0.785156 13.3959L24.5664 25.0283L48.3684 13.3959L24.5664 1.78418Z" fill="white"/>
<path d="M24.5676 15.1091L14.4229 20.0679L24.5676 25.0266L34.733 20.0679L24.5676 15.1091Z" fill="#F7BF43"/>
<path fill-rule="evenodd" clip-rule="evenodd" d="M24.2215 1.07953C24.4385 0.973533 24.6923 0.973489 24.9095 1.07941L48.7114 12.6911C48.9808 12.8225 49.1517 13.096 49.1518 13.3957C49.1519 13.6955 48.9812 13.9691 48.7119 14.1007L24.91 25.733C24.6926 25.8393 24.4383 25.8392 24.221 25.7329L0.439688 14.1006C0.170523 13.9689 -0.000104995 13.6954 4.84728e-08 13.3957C0.000105092 13.0961 0.170925 12.8227 0.440182 12.6912L24.2215 1.07953ZM24.5657 2.65704L2.57056 13.3966L24.5657 24.1554L46.58 13.3966L24.5657 2.65704Z" fill="#111416"/>
<path fill-rule="evenodd" clip-rule="evenodd" d="M37.1851 14.6071C37.3739 14.2173 37.843 14.0543 38.2328 14.2432L39.5552 14.8837C39.945 15.0725 40.108 15.5416 39.9191 15.9314C39.7303 16.3213 39.2612 16.4842 38.8714 16.2954L37.549 15.6549C37.1592 15.4661 36.9962 14.997 37.1851 14.6071Z" fill="#B8D1CD"/>
<path fill-rule="evenodd" clip-rule="evenodd" d="M33.8613 12.9645C34.055 12.5771 34.5261 12.42 34.9136 12.6137L36.2359 13.2749C36.6233 13.4686 36.7803 13.9397 36.5866 14.3272C36.3929 14.7146 35.9218 14.8716 35.5344 14.6779L34.212 14.0167C33.8246 13.823 33.6676 13.3519 33.8613 12.9645Z" fill="#B8D1CD"/>
<path fill-rule="evenodd" clip-rule="evenodd" d="M30.5337 11.3623C30.7225 10.9724 31.1916 10.8095 31.5815 10.9983L32.9038 11.6388C33.2936 11.8276 33.4566 12.2967 33.2678 12.6866C33.0789 13.0764 32.6098 13.2394 32.22 13.0505L30.8977 12.41C30.5078 12.2212 30.3449 11.7521 30.5337 11.3623Z" fill="#B8D1CD"/>
<path fill-rule="evenodd" clip-rule="evenodd" d="M27.187 9.73018C27.3759 9.34034 27.8449 9.1774 28.2348 9.36622L29.5571 10.0067C29.9469 10.1956 30.1099 10.6647 29.9211 11.0545C29.7322 11.4443 29.2631 11.6073 28.8733 11.4184L27.551 10.7779C27.1611 10.5891 26.9982 10.12 27.187 9.73018Z" fill="#B8D1CD"/>
<path fill-rule="evenodd" clip-rule="evenodd" d="M11.964 14.6071C12.1529 14.997 11.9899 15.4661 11.6001 15.6549L10.2778 16.2954C9.88791 16.4842 9.41882 16.3213 9.22999 15.9314C9.04116 15.5416 9.20412 15.0725 9.59395 14.8837L10.9163 14.2432C11.3061 14.0543 11.7752 14.2173 11.964 14.6071Z" fill="#B8D1CD"/>
<path fill-rule="evenodd" clip-rule="evenodd" d="M15.2888 12.9645C15.4825 13.3519 15.3255 13.823 14.938 14.0167L13.6157 14.6779C13.2283 14.8716 12.7572 14.7146 12.5634 14.3272C12.3697 13.9397 12.5268 13.4686 12.9142 13.2749L14.2365 12.6137C14.624 12.42 15.0951 12.5771 15.2888 12.9645Z" fill="#B8D1CD"/>
<path fill-rule="evenodd" clip-rule="evenodd" d="M18.6164 11.3623C18.8052 11.7521 18.6423 12.2212 18.2524 12.41L16.9301 13.0505C16.5403 13.2394 16.0712 13.0764 15.8823 12.6866C15.6935 12.2967 15.8565 11.8276 16.2463 11.6388L17.5686 10.9983C17.9585 10.8095 18.4276 10.9724 18.6164 11.3623Z" fill="#B8D1CD"/>
<path fill-rule="evenodd" clip-rule="evenodd" d="M21.9445 9.73018C22.1333 10.12 21.9704 10.5891 21.5806 10.7779L20.2582 11.4184C19.8684 11.6073 19.3993 11.4443 19.2105 11.0545C19.0216 10.6647 19.1846 10.1956 19.5744 10.0067L20.8968 9.36622C21.2866 9.1774 21.7557 9.34035 21.9445 9.73018Z" fill="#B8D1CD"/>
<path fill-rule="evenodd" clip-rule="evenodd" d="M24.2111 7.73734C24.4319 7.62694 24.6918 7.62694 24.9126 7.73734L26.235 8.3985C26.6224 8.59222 26.7794 9.06333 26.5857 9.45076C26.392 9.83819 25.9209 9.99523 25.5335 9.80151L24.5619 9.31573L23.5903 9.80151C23.2029 9.99523 22.7318 9.83819 22.5381 9.45076C22.3443 9.06333 22.5014 8.59222 22.8888 8.3985L24.2111 7.73734Z" fill="#B8D1CD"/>
</svg>
